<?xml version="1.0" encoding="UTF-8"?>
<svg id="Layer_1" xmlns="http://www.w3.org/2000/svg" version="1.1" viewBox="0 0 367.43 59.1">
  <!-- Generator: Adobe Illustrator 29.8.6, SVG Export Plug-In . SVG Version: 2.1.1 Build 1)  -->
  <path d="M338.61,41.41l6.85-1.85c.41,5.96,1.92,11.92,7.88,11.92,3.97,0,6.1-2.26,6.1-6.51,0-5-2.53-7.6-6.03-10.69l-9.32-8.22c-3.7-3.22-5.34-6.71-5.34-12.26,0-8.15,5-12.81,13.02-12.81,8.84,0,13.09,4.59,13.98,14.32l-6.58,1.78c-.41-5.48-1.64-10.14-7.4-10.14-3.84,0-6.1,2.06-6.1,6.1,0,3.36,1.03,5.28,3.63,7.54l9.39,8.22c4.18,3.7,7.95,8.63,7.95,15.55,0,8.22-5.55,13.22-13.29,13.22-9.66,0-14.18-6.58-14.73-16.17Z"/>
  <path d="M1.15,39.13v-19.59C1.15,8.3,4.3.97,16.08.97c10.35,0,13.98,5.96,13.98,15.96v4.38h-7.33v-3.9c0-6.17-.14-10.41-6.58-10.41s-7.19,4.52-7.19,11.37v21.99c0,8.36,1.85,11.1,7.19,11.1,6.23,0,6.58-4.45,6.58-11.03v-4.11h7.33v4.11c0,10.21-3.08,17.13-13.98,17.13-11.78,0-14.94-8.08-14.94-18.43Z"/>
  <path d="M39.85,39.54v-21.03c0-10.96,3.97-17.54,15.21-17.54s15.14,6.65,15.14,17.54v21.1c0,10.89-3.97,17.95-15.14,17.95s-15.21-6.99-15.21-18.02ZM62.39,41.25v-24.32c0-6.17-1.17-9.93-7.33-9.93s-7.4,3.77-7.4,9.93v24.32c0,6.17,1.16,10.21,7.4,10.21s7.33-4.04,7.33-10.21Z"/>
  <path d="M165.7,38.24V1.44h7.4v37.13c0,7.19.89,12.88,7.4,12.88s7.4-5.69,7.4-12.88V1.44h7.33v36.79c0,11.65-2.67,19.32-14.73,19.32s-14.8-7.67-14.8-19.32Z"/>
  <path d="M206.8,1.44h7.74v49.95h14.18v5.55h-21.92V1.44Z"/>
  <path d="M265.98,39.13v-19.59c0-11.24,3.15-18.57,14.94-18.57,10.35,0,13.98,5.96,13.98,15.96v4.38h-7.33v-3.9c0-6.17-.14-10.41-6.58-10.41s-7.19,4.52-7.19,11.37v21.99c0,8.36,1.85,11.1,7.19,11.1,6.23,0,6.58-4.45,6.58-11.03v-4.11h7.33v4.11c0,10.21-3.08,17.13-13.98,17.13-11.78,0-14.94-8.08-14.94-18.43Z"/>
  <path d="M143.64,1.44h-13.77v5.55h11.37c7.74,0,8.77,1.99,8.77,9.87,0,6.85-2.19,8.7-8.84,8.7h-11.3v31.38h7.74v-25.83h6.1c9.04,0,13.63-5.48,13.63-14.32,0-9.66-3.77-15.35-13.7-15.35Z"/>
  <path d="M240.84.97c-11.24,0-15.21,6.58-15.21,17.54v16.09h7.81v-17.66c0-6.17,1.16-9.93,7.4-9.93s7.33,3.77,7.33,9.93v24.32c0,6.01-1.12,9.99-6.89,10.19v6.1c10.82-.19,14.7-7.19,14.7-17.93v-21.1c0-10.89-3.97-17.54-15.14-17.54Z"/>
  <polygon points="312.53 40.37 312.53 56.93 305.55 56.93 305.55 1.43 312.53 1.43 312.53 26.36 325.27 1.43 332.46 1.43 312.53 40.37"/>
  <polygon points="81.82 17.67 81.09 56.94 87.4 56.94 87.75 33.68 81.82 17.67"/>
  <polygon points="88.01 16.65 97.33 42.38 101.72 42.38 111.1 16.65 111.72 56.94 117.95 56.94 116.93 1.44 109.39 1.44 99.52 31.89 89.73 1.44 82.12 1.44 88.01 16.65"/>
  <polygon points="324.23 30.34 319.88 38.69 326.71 56.93 334.25 56.93 324.23 30.34"/>
</svg>